<svg xmlns="http://www.w3.org/2000/svg" width="100" height="100" viewBox="0 0 100 100">
  <g fill="none" fill-rule="evenodd">
    <rect width="100" height="100" fill="#777777" rx="3"/>
    <path fill="#FFFFFF" d="M30,46 L33,46 C34.3278734,46 35.1147508,45.6901829 36,45 C36.4262328,44.4508959 36.9016379,43.6652883 37,43 C37.4918048,41.7620976 37.699453,40.8879708 38,40 C37.9398913,39.2946018 38,38.5421889 38,38 C38,37.1258609 37.9508202,36.3955778 38,36 C37.7540979,34.8907293 37.5792362,34.0553296 37,33 C37.0765015,32.2185293 36.6612051,31.4661163 36,31 C35.5027293,30.2932198 34.7978184,30 34,30 L30,30 L30,46 Z M18,79 L18,21 L31,21 C33.9265291,21 36.5208428,21.2738862 39,22 C40.9995147,22.3694472 42.9602696,23.2286978 45,24 C46.3247353,25.570191 47.6027762,27.1490641 48,29 C49.3505505,31.1231581 49.7874876,33.5022084 50,36 C49.7874876,37.4763023 49.7437939,38.5503656 50,39 C49.5690164,40.4407455 49.3669331,41.5201791 49,43 C48.7333649,43.9475987 48.3018895,45.021662 48,46 C47.2095305,46.8905602 46.4230439,47.8088844 45,49 C44.369409,49.6133378 43.1569087,50.3651822 42,51 C45.2979323,62.0082034 48.3783384,71.3525544 51,79 L39,79 L32,52 L30,52 L30,79 L18,79 Z M67,46 C67.674422,46 68.2732532,45.9614141 69,46 C69.3197701,45.8070684 69.7790678,45.7188721 70,46 C70.5697694,45.5204275 70.9186031,45.3385227 71,45 C71.5232573,44.8093372 71.7732548,44.577822 72,44 C72.1686056,44.1809329 72.3372086,43.8557091 72,43 C72.6162798,42.9516839 72.7209299,42.582362 73,42 C72.8604655,42.0090777 72.9127905,41.5460473 73,41 C72.9825583,40.2671823 73,39.7545415 73,39 L73,37 C73,36.2101124 72.9941861,35.559665 73,35 C72.9709302,34.6776891 72.9302329,34.1154379 73,33 C72.7906973,32.7483753 72.6802333,32.2357345 73,32 C72.3779062,31.5522032 72.1569782,31.1608323 72,31 C71.5755799,30.2788564 71.2209323,29.959145 71,30 C70.3837188,29.5622558 69.8546544,29.3858633 69,29 C68.5755782,29.0771717 67.8372135,29 67,29 L67,46 Z M55,79 L55,21 L69,21 C74.409905,21 78.1496866,22.407023 80,25 C82.8299514,28.0351993 84,32.1058993 84,37 C84,40.0540872 83.7430267,42.3311014 83,44 C82.7151181,46.1977874 81.9988734,47.7927715 81,49 C80.1617601,50.3061174 78.9807764,51.3157369 78,52 C76.0938842,52.8409297 74.5301743,53.3779614 73,54 C71.1621334,54.0009275 69.2156973,54.1674073 67,54 L67,79 L55,79 Z"/>
  </g>
</svg>
